<?xml version="1.0" encoding="utf-8"?>
<!-- Generator: Adobe Illustrator 16.0.0, SVG Export Plug-In . SVG Version: 6.00 Build 0)  -->
<!DOCTYPE svg PUBLIC "-//W3C//DTD SVG 1.1//EN" "http://www.w3.org/Graphics/SVG/1.1/DTD/svg11.dtd">
<svg version="1.1" id="Layer_1" xmlns="http://www.w3.org/2000/svg" xmlns:xlink="http://www.w3.org/1999/xlink" x="0px" y="0px"
	 width="20px" height="20px" viewBox="0 0 20 20" enable-background="new 0 0 20 20" xml:space="preserve">
<path fill-rule="evenodd" clip-rule="evenodd" fill="#FF0000" d="M2.582,6.171C5.03,9.66,5.446,10.27,6.731,13.418
	c3.65-5.772,6.893-8.515,11.166-10.48c0.306-0.141,0.586-0.369,0.93-0.459c1.965-0.517,0.989,0.362,0.449,0.789
	c-0.257,0.205-0.509,0.409-0.757,0.611c-14.154,11.571-10.235,17-13.09,11.856l-0.023,0.01l0.014-0.025
	c-0.855-1.539-2.312-4.015-5.032-7.549c-0.552-0.606-0.508-1.545,0.098-2.097C1.091,5.521,2.03,5.564,2.582,6.171z"/>
</svg>
