<?xml version="1.0" encoding="utf-8"?>
<!-- Generator: Adobe Illustrator 16.0.0, SVG Export Plug-In . SVG Version: 6.00 Build 0)  -->
<!DOCTYPE svg PUBLIC "-//W3C//DTD SVG 1.1//EN" "http://www.w3.org/Graphics/SVG/1.1/DTD/svg11.dtd">
<svg version="1.1" id="Layer_1" xmlns="http://www.w3.org/2000/svg" xmlns:xlink="http://www.w3.org/1999/xlink" x="0px" y="0px"
	 width="40px" height="40px" viewBox="0 0 40 40" enable-background="new 0 0 40 40" xml:space="preserve">
<g id="Layer_x0020_1">
	<path fill="#FCFCFC" d="M20,0L20,0v0.005c5.525,0,10.525,2.237,14.141,5.854c3.616,3.617,5.854,8.616,5.854,14.141H40l0,0l0,0
		h-0.005c0,5.525-2.237,10.525-5.854,14.141c-3.615,3.616-8.615,5.854-14.14,5.854V40l0,0l0,0v-0.005
		c-5.525,0-10.524-2.237-14.141-5.854C2.242,30.525,0.005,25.525,0.005,20H0l0,0l0,0h0.005c0-5.524,2.237-10.524,5.854-14.141
		C9.476,2.243,14.475,0.005,20,0.005V0L20,0L20,0z M20,2.386V2.39l0,0h-0.001L20,2.386c-4.859,0-9.262,1.973-12.452,5.163
		C4.359,10.738,2.386,15.141,2.385,20H2.39l0,0l0,0H2.385c0,4.859,1.974,9.261,5.163,12.451c3.189,3.189,7.593,5.163,12.452,5.163
		v-0.005l0,0l0,0v0.005c4.859,0,9.262-1.974,12.451-5.163S37.613,24.859,37.613,20h-0.004l0,0v-0.001h0.004
		c0-4.858-1.973-9.261-5.162-12.451C29.262,4.359,24.859,2.386,20,2.386L20,2.386z"/>
	<g>
		<path fill="#FCFCFC" d="M30.058,14.61c-0.125-0.179-0.324-0.289-0.542-0.298l-13.487-0.582c-0.388-0.018-0.71,0.281-0.727,0.667
			c-0.017,0.384,0.282,0.709,0.667,0.726l12.573,0.542L26.07,23.38H15.068l-1.987-10.822c-0.043-0.237-0.206-0.435-0.431-0.523
			l-3.255-1.278c-0.359-0.141-0.764,0.036-0.905,0.394c-0.141,0.358,0.036,0.764,0.394,0.904l2.895,1.137l2.022,11.013
			c0.061,0.33,0.35,0.571,0.687,0.571h0.334l-0.766,2.128c-0.064,0.178-0.038,0.375,0.072,0.53c0.109,0.156,0.287,0.247,0.475,0.247
			h0.538c-0.333,0.371-0.538,0.859-0.538,1.396c0,1.153,0.939,2.091,2.093,2.091s2.093-0.938,2.093-2.091
			c0-0.537-0.205-1.025-0.537-1.396h4.562c-0.333,0.371-0.536,0.859-0.536,1.396c0,1.153,0.938,2.091,2.093,2.091
			s2.093-0.938,2.093-2.091c0-0.537-0.206-1.025-0.538-1.396h0.652c0.322,0,0.584-0.259,0.584-0.581
			c0-0.321-0.262-0.579-0.584-0.579H15.431l0.628-1.745h10.518c0.306,0,0.573-0.197,0.664-0.485l2.906-9.068
			C30.218,15.015,30.182,14.788,30.058,14.61z M16.696,30.007c-0.513,0-0.93-0.418-0.93-0.93c0-0.514,0.417-0.931,0.93-0.931
			s0.93,0.417,0.93,0.931C17.626,29.589,17.209,30.007,16.696,30.007z M24.37,30.007c-0.514,0-0.933-0.418-0.933-0.93
			c0-0.514,0.419-0.931,0.933-0.931c0.513,0,0.93,0.417,0.93,0.931C25.3,29.589,24.883,30.007,24.37,30.007z"/>
	</g>
</g>
</svg>
