<?xml version="1.0" encoding="utf-8"?>
<!-- Generator: Adobe Illustrator 16.0.0, SVG Export Plug-In . SVG Version: 6.00 Build 0)  -->
<!DOCTYPE svg PUBLIC "-//W3C//DTD SVG 1.1//EN" "http://www.w3.org/Graphics/SVG/1.1/DTD/svg11.dtd">
<svg version="1.1" id="Layer_1" xmlns="http://www.w3.org/2000/svg" xmlns:xlink="http://www.w3.org/1999/xlink" x="0px" y="0px"
	 width="40px" height="40px" viewBox="0 0 40 40" enable-background="new 0 0 40 40" xml:space="preserve">
<g id="Layer_x0020_1">
	<g id="_152222920">
		<path id="_152222248" fill="#FFFFFF" d="M16.599,15.442c-3.738,2.158,1.965,12.851,6.055,10.489
			c0.727,1.259,3.066,5.312,3.793,6.569c-1.726,0.996-3.187,1.625-5.188,0.48c-5.555-3.176-11.67-13.764-11.497-20.079
			c0.061-2.193,1.353-3.053,3.043-4.029C13.533,10.131,15.873,14.184,16.599,15.442L16.599,15.442z"/>
		<path id="_150519168" fill="#FFFFFF" d="M18.167,15.264c-0.404,0.233-0.923,0.094-1.157-0.31l-3.575-6.192
			c-0.233-0.404-0.094-0.924,0.31-1.157l1.879-1.085c0.404-0.233,0.924-0.094,1.157,0.31l3.576,6.193
			c0.233,0.404,0.094,0.923-0.31,1.157L18.167,15.264L18.167,15.264z"/>
		<path id="_226148072" fill="#FFFFFF" d="M27.935,32.182c-0.403,0.233-0.923,0.094-1.157-0.31l-3.574-6.192
			c-0.234-0.404-0.095-0.924,0.309-1.158l1.88-1.084c0.403-0.233,0.924-0.094,1.157,0.31l3.575,6.192
			c0.233,0.404,0.094,0.924-0.31,1.157L27.935,32.182L27.935,32.182z"/>
	</g>
	<path fill="#FFFFFF" d="M20,0L20,0l0,0.005c5.525,0,10.525,2.237,14.141,5.854c3.616,3.617,5.854,8.616,5.854,14.141H40V20v0
		h-0.005c0,5.525-2.237,10.525-5.854,14.141c-3.615,3.616-8.615,5.854-14.14,5.854V40h0h0v-0.005
		c-5.525,0-10.524-2.237-14.141-5.854C2.242,30.525,0.005,25.525,0.005,20H0v0v0h0.005c0-5.524,2.237-10.524,5.854-14.141
		c3.617-3.616,8.616-5.854,14.141-5.854L20,0L20,0L20,0z M20,2.386V2.39h0h-0.001V2.386c-4.858,0-9.261,1.973-12.451,5.163
		C4.359,10.738,2.386,15.141,2.385,20H2.39v0v0H2.385c0,4.859,1.974,9.261,5.163,12.451S15.141,37.614,20,37.614v-0.005h0h0v0.005
		c4.859,0,9.261-1.974,12.451-5.163S37.614,24.859,37.614,20h-0.005v0v-0.001h0.005c0-4.858-1.974-9.261-5.163-12.451
		C29.262,4.359,24.859,2.386,20,2.386L20,2.386z"/>
</g>
</svg>
