<?xml version="1.0" encoding="utf-8"?>
<!-- Generator: Adobe Illustrator 16.0.0, SVG Export Plug-In . SVG Version: 6.00 Build 0)  -->
<!DOCTYPE svg PUBLIC "-//W3C//DTD SVG 1.1//EN" "http://www.w3.org/Graphics/SVG/1.1/DTD/svg11.dtd">
<svg version="1.1" id="Layer_1" xmlns="http://www.w3.org/2000/svg" xmlns:xlink="http://www.w3.org/1999/xlink" x="0px" y="0px"
	 width="512px" height="168px" viewBox="0 0 512 168" enable-background="new 0 0 512 168" xml:space="preserve">
<g>
	<g>
		<path fill="none" stroke="#FFFFFF" stroke-width="8" stroke-miterlimit="10" d="M496,141.287c0,11.717-9.498,21.219-21.214,21.219
			H37.219c-11.718,0-21.219-9.502-21.219-21.219V26.711c0-11.716,9.502-21.218,21.219-21.218h437.566
			c11.716,0,21.215,9.502,21.215,21.218V141.287L496,141.287z"/>
		<path fill="#FFFFFF" d="M98.9,32.346H59.802c-4.685,0-8.485,3.797-8.485,8.485v86.623c0,4.688,3.801,8.488,8.485,8.488H98.9
			c4.688,0,8.489-3.801,8.489-8.488V40.831C107.389,36.143,103.588,32.346,98.9,32.346z M79.351,129.711
			c-3.121,0-5.65-2.529-5.65-5.654c0-3.121,2.528-5.65,5.65-5.65c3.124,0,5.653,2.529,5.653,5.65
			C85.004,127.182,82.475,129.711,79.351,129.711z M100.723,115.654H57.979V51.759h42.743V115.654z"/>
		<g>
			<path fill="#FFFFFF" d="M139.41,47.785l-2.376,7.198h-3.056l7.774-22.886h3.566l7.808,22.886h-3.158l-2.443-7.198H139.41z
				 M146.913,45.477l-2.273-6.588c-0.476-1.496-0.816-2.852-1.155-4.175h-0.099c-0.306,1.324-0.681,2.751-1.121,4.141l-2.24,6.623
				H146.913z"/>
			<path fill="#FFFFFF" d="M156.184,38.548l3.226,9.204c0.544,1.526,0.986,2.885,1.326,4.242h0.101
				c0.374-1.356,0.847-2.716,1.392-4.242l3.192-9.204h3.124l-6.453,16.433h-2.853l-6.243-16.433H156.184z"/>
			<path fill="#FFFFFF" d="M182.293,51.045c0,1.424,0.069,2.813,0.239,3.935h-2.682l-0.273-2.069h-0.101
				c-0.88,1.292-2.682,2.443-5.025,2.443c-3.327,0-5.023-2.342-5.023-4.718c0-3.974,3.531-6.147,9.879-6.113v-0.34
				c0-1.355-0.375-3.838-3.733-3.799c-1.564,0-3.157,0.438-4.313,1.22l-0.682-2.006c1.361-0.847,3.363-1.423,5.434-1.423
				c5.063,0,6.281,3.429,6.281,6.724V51.045z M179.374,46.595c-3.261-0.067-6.958,0.51-6.958,3.703c0,1.968,1.288,2.852,2.78,2.852
				c2.176,0,3.565-1.36,4.042-2.751c0.102-0.307,0.136-0.646,0.136-0.952V46.595L179.374,46.595z"/>
			<path fill="#FFFFFF" d="M188.333,35.527c-1.118,0-1.865-0.881-1.865-1.936c0-1.053,0.781-1.899,1.935-1.899
				c1.156,0,1.903,0.846,1.903,1.899c0,1.054-0.747,1.936-1.935,1.936H188.333z M186.91,54.982V38.548h2.988v16.434H186.91z"/>
			<path fill="#FFFFFF" d="M194.684,30.877h2.988v24.104h-2.988V30.877z"/>
			<path fill="#FFFFFF" d="M214.036,51.045c0,1.424,0.069,2.813,0.237,3.935h-2.685l-0.271-2.069h-0.1
				c-0.883,1.292-2.682,2.443-5.026,2.443c-3.324,0-5.024-2.342-5.024-4.718c0-3.974,3.531-6.147,9.882-6.113v-0.34
				c0-1.355-0.374-3.838-3.737-3.799c-1.56,0-3.158,0.438-4.309,1.22l-0.683-2.006c1.358-0.847,3.364-1.423,5.435-1.423
				c5.058,0,6.28,3.429,6.28,6.724L214.036,51.045L214.036,51.045z M211.117,46.595c-3.261-0.067-6.963,0.51-6.963,3.703
				c0,1.968,1.291,2.852,2.785,2.852c2.175,0,3.565-1.36,4.041-2.751c0.104-0.307,0.136-0.646,0.136-0.952L211.117,46.595
				L211.117,46.595z"/>
			<path fill="#FFFFFF" d="M218.649,30.877h2.989v10.286h0.07c1.051-1.832,2.952-2.988,5.599-2.988c4.077,0,6.93,3.395,6.93,8.352
				c0,5.907-3.736,8.827-7.401,8.827c-2.375,0-4.245-0.918-5.498-3.09h-0.072l-0.17,2.716h-2.576
				c0.101-1.122,0.132-2.783,0.132-4.242V30.877H218.649z M221.639,48.396c0,0.372,0.034,0.745,0.105,1.085
				c0.574,2.069,2.342,3.497,4.479,3.497c3.158,0,4.989-2.546,4.989-6.315c0-3.327-1.696-6.142-4.888-6.142
				c-2.036,0-3.941,1.424-4.518,3.663c-0.1,0.375-0.17,0.783-0.17,1.258L221.639,48.396L221.639,48.396z"/>
			<path fill="#FFFFFF" d="M237.799,30.877h2.987v24.104h-2.987V30.877z"/>
			<path fill="#FFFFFF" d="M247.27,47.275c0.067,4.042,2.613,5.704,5.603,5.704c2.142,0,3.463-0.373,4.551-0.815l0.54,2.104
				c-1.05,0.476-2.885,1.054-5.499,1.054c-5.024,0-8.08-3.361-8.08-8.284c0-4.99,2.953-8.895,7.744-8.895
				c5.358,0,6.754,4.721,6.754,7.739c0,0.611-0.034,1.087-0.103,1.427L247.27,47.275z M255.994,45.137
				c0.033-1.869-0.782-4.859-4.11-4.859c-3.051,0-4.344,2.785-4.582,4.859H255.994z"/>
			<path fill="#FFFFFF" d="M276.128,55.355c-4.414,0-7.88-3.26-7.88-8.455c0-5.5,3.636-8.726,8.15-8.726
				c4.718,0,7.909,3.429,7.909,8.419c0,6.113-4.244,8.761-8.147,8.761H276.128L276.128,55.355z M276.229,53.116
				c2.852,0,4.989-2.683,4.989-6.418c0-2.785-1.389-6.282-4.922-6.282c-3.499,0-5.024,3.26-5.024,6.384
				c0,3.6,2.037,6.316,4.924,6.316H276.229z"/>
			<path fill="#FFFFFF" d="M287.909,42.999c0-1.734-0.038-3.09-0.14-4.451h2.649l0.169,2.682h0.067
				c0.815-1.525,2.717-3.055,5.431-3.055c2.274,0,5.813,1.358,5.813,6.996v9.81h-2.993v-9.474c0-2.644-0.982-4.888-3.804-4.888
				c-1.936,0-3.46,1.393-4.005,3.056c-0.137,0.374-0.204,0.919-0.204,1.394v9.912h-2.984L287.909,42.999L287.909,42.999z"/>
			<path fill="#FFFFFF" d="M317.205,34.611v3.936h4.275v2.275h-4.275v8.862c0,2.036,0.577,3.192,2.239,3.192
				c0.817,0,1.294-0.067,1.735-0.206l0.132,2.275c-0.572,0.204-1.492,0.409-2.644,0.409c-1.396,0-2.518-0.476-3.229-1.254
				c-0.813-0.919-1.153-2.38-1.153-4.314v-8.965h-2.544v-2.275h2.544v-3.021L317.205,34.611z"/>
			<path fill="#FFFFFF" d="M324.672,30.877h2.989v10.252h0.064c0.476-0.851,1.224-1.627,2.142-2.104
				c0.883-0.544,1.935-0.849,3.057-0.849c2.206,0,5.733,1.358,5.733,7.028v9.777h-2.983v-9.437c0-2.681-0.986-4.892-3.807-4.892
				c-1.934,0-3.427,1.36-4.003,2.988c-0.17,0.409-0.205,0.85-0.205,1.428v9.913h-2.988L324.672,30.877L324.672,30.877z"/>
			<path fill="#FFFFFF" d="M345.041,47.275c0.068,4.042,2.614,5.704,5.603,5.704c2.139,0,3.464-0.373,4.554-0.815l0.54,2.104
				c-1.054,0.476-2.887,1.054-5.502,1.054c-5.022,0-8.08-3.361-8.08-8.284c0-4.99,2.955-8.895,7.742-8.895
				c5.364,0,6.759,4.721,6.759,7.739c0,0.611-0.035,1.087-0.103,1.427L345.041,47.275z M353.768,45.137
				c0.029-1.869-0.782-4.859-4.109-4.859c-3.053,0-4.349,2.785-4.584,4.859H353.768z"/>
			<path fill="#FFFFFF" d="M368.639,35.527c-1.124,0-1.872-0.881-1.872-1.936c0-1.053,0.781-1.899,1.937-1.899
				c1.154,0,1.901,0.846,1.901,1.899c0,1.054-0.748,1.936-1.939,1.936H368.639z M367.209,54.982V38.548h2.988v16.434H367.209z"/>
			<path fill="#FFFFFF" d="M375.085,32.403c1.424-0.269,3.294-0.475,5.671-0.475c2.917,0,5.059,0.678,6.413,1.904
				c1.258,1.083,2.04,2.75,2.04,4.786c0,2.07-0.612,3.702-1.802,4.888c-1.56,1.666-4.107,2.513-6.992,2.513
				c-0.881,0-1.695-0.035-2.376-0.201v9.166h-2.953L375.085,32.403L375.085,32.403z M378.039,43.403
				c0.645,0.171,1.496,0.239,2.445,0.239c3.599,0,5.736-1.765,5.736-4.855c0-3.055-2.138-4.514-5.397-4.514
				c-1.289,0-2.273,0.134-2.784,0.238V43.403L378.039,43.403z"/>
			<path fill="#FFFFFF" d="M392.706,30.877h2.991v10.252h0.066c0.476-0.851,1.224-1.627,2.138-2.104
				c0.885-0.544,1.938-0.849,3.057-0.849c2.208,0,5.737,1.358,5.737,7.028v9.777h-2.985v-9.437c0-2.681-0.987-4.892-3.807-4.892
				c-1.932,0-3.425,1.36-4.005,2.988c-0.171,0.409-0.203,0.85-0.203,1.428v9.913h-2.99L392.706,30.877L392.706,30.877z"/>
			<path fill="#FFFFFF" d="M418.068,55.355c-4.413,0-7.879-3.26-7.879-8.455c0-5.5,3.635-8.726,8.152-8.726
				c4.717,0,7.907,3.429,7.907,8.419c0,6.113-4.242,8.761-8.146,8.761H418.068L418.068,55.355z M418.173,53.116
				c2.846,0,4.988-2.683,4.988-6.418c0-2.785-1.39-6.282-4.925-6.282c-3.495,0-5.025,3.26-5.025,6.384
				c0,3.6,2.037,6.316,4.924,6.316H418.173z"/>
			<path fill="#FFFFFF" d="M429.849,42.999c0-1.734-0.035-3.09-0.136-4.451h2.647l0.17,2.682h0.068
				c0.816-1.525,2.718-3.055,5.432-3.055c2.275,0,5.804,1.358,5.804,6.996v9.81h-2.985v-9.474c0-2.644-0.985-4.888-3.805-4.888
				c-1.934,0-3.461,1.393-4.003,3.056c-0.138,0.374-0.21,0.919-0.21,1.394v9.912h-2.984V42.999H429.849z"/>
			<path fill="#FFFFFF" d="M450.218,47.275c0.068,4.042,2.615,5.704,5.604,5.704c2.137,0,3.462-0.373,4.548-0.815l0.545,2.104
				c-1.056,0.476-2.887,1.054-5.501,1.054c-5.024,0-8.081-3.361-8.081-8.284c0-4.99,2.955-8.895,7.74-8.895
				c5.365,0,6.758,4.721,6.758,7.739c0,0.611-0.033,1.087-0.101,1.427L450.218,47.275z M458.944,45.137
				c0.033-1.869-0.782-4.859-4.109-4.859c-3.058,0-4.346,2.785-4.584,4.859H458.944z"/>
		</g>
		<g>
			<path fill="#FFFFFF" d="M153.477,70.482l-20.13,59.258h9.218l6.011-18.195h19.492l6.18,18.195h9.474l-20.219-59.258H153.477z
				 M158.254,80.225c0.68,2.645,1.412,5.392,2.355,8.359l5.425,15.713h-15.44l5.351-15.814
				C156.76,85.918,157.532,83.149,158.254,80.225z"/>
			<path fill="#FFFFFF" d="M209.771,85.844c-6.107,0-10.998,2.356-14.254,6.838l-0.356-5.896h-8.2l0.049,0.755
				c0.24,3.67,0.343,7.713,0.343,13.516v45.674h8.963v-21.314c2.781,3.328,7.225,5.266,12.256,5.266
				c5.24,0,10.068-2.053,13.587-5.775c3.926-4.15,5.999-10.117,5.999-17.244c0-6.299-1.799-11.746-5.21-15.746
				C219.607,88,214.931,85.844,209.771,85.844z M207.538,93.266c7.991,0,11.569,7.404,11.569,14.738
				c0,9.463-4.564,15.342-11.91,15.342c-5.015,0-9.354-3.412-10.561-8.318c-0.208-0.762-0.32-1.768-0.32-2.902v-7.211
				c0-0.652,0.146-1.443,0.286-2.211c0.044-0.246,0.092-0.49,0.129-0.729C198.066,96.844,202.506,93.266,207.538,93.266z"/>
			<path fill="#FFFFFF" d="M255.938,85.844c-6.106,0-10.997,2.356-14.255,6.838l-0.356-5.896h-8.199l0.047,0.755
				c0.243,3.674,0.345,7.713,0.345,13.516v45.674h8.968v-21.314c2.78,3.328,7.22,5.266,12.251,5.266
				c5.242,0,10.068-2.053,13.591-5.775c3.924-4.15,5.997-10.117,5.997-17.244c0-6.299-1.802-11.746-5.212-15.746
				C265.775,88,261.098,85.844,255.938,85.844z M253.707,93.266c7.989,0,11.565,7.404,11.565,14.738
				c0,9.463-4.564,15.342-11.908,15.342c-5.013,0-9.356-3.412-10.563-8.318c-0.208-0.762-0.314-1.768-0.314-2.902v-7.211
				c0-0.656,0.141-1.451,0.285-2.219c0.044-0.242,0.088-0.484,0.13-0.723C244.233,96.844,248.674,93.266,253.707,93.266z"/>
			<path fill="#FFFFFF" d="M313.775,95.59c-8.367-3.24-11.049-5.789-11.049-10.496c0-3.966,3.151-7.962,10.191-7.962
				c5.808,0,9.524,2.02,10.524,2.641l0.761,0.469l2.529-7.483l-0.5-0.292c-1.502-0.881-5.781-2.93-13.057-2.93
				c-11.434,0-19.417,6.75-19.417,16.411c0,7.793,5.001,13.238,15.738,17.141c7.606,2.844,10.438,5.758,10.438,10.752
				c0,5.652-4.367,9.162-11.396,9.162c-4.577,0-9.287-1.336-12.923-3.664l-0.777-0.5l-2.406,7.654l0.442,0.295
				c3.384,2.26,9.756,3.895,15.151,3.895c15.409,0,20.873-9.396,20.873-17.443C328.899,104.945,324.519,99.83,313.775,95.59z"/>
			<path fill="#FFFFFF" d="M345.038,76.578l-8.795,2.76v7.449h-6.435v7.165h6.435V115.9c0,5.307,1.016,9.025,3.106,11.375
				c2.003,2.197,5.084,3.406,8.672,3.406c3.392,0,5.799-0.668,6.932-1.07l0.502-0.178l-0.429-7.178l-0.859,0.266
				c-1.133,0.346-2.299,0.48-4.17,0.48c-3.476,0-4.958-2.199-4.958-7.357V93.953h10.813v-7.166h-10.813L345.038,76.578
				L345.038,76.578z"/>
			<path fill="#FFFFFF" d="M378.07,85.844c-12.544,0-21.304,9.361-21.304,22.762c0,13,8.478,22.076,20.616,22.076h0.086
				c10.263,0,21.303-7.148,21.303-22.848c0-6.385-1.974-11.867-5.713-15.857C389.297,87.966,384.113,85.844,378.07,85.844z
				 M377.813,92.922c8.067,0,11.736,7.863,11.736,15.172c0,8.986-5.01,15.51-11.907,15.51h-0.086c-6.8,0-11.736-6.414-11.736-15.254
				C365.819,100.672,369.527,92.922,377.813,92.922z"/>
			<path fill="#FFFFFF" d="M426.232,86.26l-0.537-0.137c-0.79-0.197-1.436-0.279-2.23-0.279c-4.69,0-8.899,2.761-11.242,7.217
				l-0.264-6.275h-8.044l0.051,0.754c0.238,3.551,0.339,7.533,0.339,12.912l-0.084,29.287h8.967v-22.85
				c0-1.244,0.086-2.42,0.246-3.475c1.013-5.488,4.716-9.035,9.435-9.035c0.918,0,1.64,0.074,2.405,0.15l0.959,0.098V86.26z"/>
			<path fill="#FFFFFF" d="M446.391,85.759c-11.936,0-20.273,9.534-20.273,23.19c0,13.148,8.294,21.646,21.13,21.646
				c6.75,0,11.446-1.482,14.195-2.723l0.539-0.244l-1.721-6.68l-0.75,0.301c-2.444,0.994-5.69,2.01-11.234,2.01
				c-3.895,0-12.877-1.285-13.429-13l28.94,0.086l0.115-0.57c0.184-0.912,0.271-2.139,0.271-3.742
				C464.176,96.682,459.519,85.759,446.391,85.759z M445.791,92.58c2.731,0,4.946,0.844,6.582,2.51
				c2.579,2.625,3.032,6.49,3.087,8.346h-20.444C435.846,98.258,439.085,92.58,445.791,92.58z"/>
		</g>
	</g>
</g>
</svg>
