<?xml version="1.0" encoding="utf-8"?>
<!-- Generator: Adobe Illustrator 16.0.0, SVG Export Plug-In . SVG Version: 6.00 Build 0)  -->
<!DOCTYPE svg PUBLIC "-//W3C//DTD SVG 1.1//EN" "http://www.w3.org/Graphics/SVG/1.1/DTD/svg11.dtd">
<svg version="1.1" id="Layer_1" xmlns="http://www.w3.org/2000/svg" xmlns:xlink="http://www.w3.org/1999/xlink" x="0px" y="0px"
	 width="512px" height="168px" viewBox="0 0 512 168" enable-background="new 0 0 512 168" xml:space="preserve">
<g>
	<path fill="none" stroke="#FFFFFF" stroke-width="8" stroke-miterlimit="10" d="M496,141.286c0,11.718-9.497,21.22-21.213,21.22
		H37.218c-11.717,0-21.218-9.502-21.218-21.22V26.712c0-11.716,9.502-21.218,21.218-21.218h437.568
		c11.716,0,21.214,9.502,21.214,21.218V141.286L496,141.286z"/>
	<g id="PLAY_1_">
		<polygon fill="#FFFFFF" stroke="#010101" stroke-miterlimit="10" points="52.004,35.722 52.004,88.888 52.004,142.051 
			105.621,88.888 		"/>
		<polygon fill="#FFFFFF" stroke="#010101" stroke-miterlimit="10" points="120.022,74.607 98.378,62.111 52.004,35.335 
			52.004,35.722 105.621,88.888 		"/>
		<polygon fill="#FFFFFF" stroke="#010101" stroke-miterlimit="10" points="52.004,142.051 52.004,142.438 98.378,115.661 
			120.021,103.165 105.621,88.888 		"/>
		<polygon fill="#FFFFFF" stroke="#010101" stroke-miterlimit="10" points="120.022,74.607 105.621,88.888 120.021,103.165 
			144.756,88.888 		"/>
	</g>
	<g>
		<path fill="#F9F9FA" d="M389.56,109.672c-2.015,0-3.852-0.372-5.516-1.114c-1.664-0.743-3.063-1.886-4.19-3.428h-0.339
			c0.226,1.807,0.339,3.518,0.339,5.135v12.725h-4.682V78.186h3.808l0.648,4.232h0.226c1.204-1.694,2.605-2.915,4.204-3.668
			c1.599-0.752,3.434-1.128,5.501-1.128c4.101,0,7.267,1.402,9.494,4.204c2.229,2.803,3.344,6.735,3.344,11.792
			c0,5.079-1.134,9.023-3.398,11.837C396.731,108.268,393.587,109.672,389.56,109.672z M388.882,81.599
			c-3.158,0-5.444,0.875-6.855,2.624c-1.409,1.749-2.134,4.534-2.172,8.353v1.043c0,4.346,0.724,7.453,2.172,9.325
			c1.45,1.873,3.773,2.807,6.969,2.807c2.673,0,4.766-1.081,6.28-3.244c1.514-2.16,2.27-5.144,2.27-8.945
			c0-3.854-0.756-6.813-2.27-8.873C393.761,82.628,391.629,81.599,388.882,81.599z"/>
		<path fill="#F9F9FA" d="M413.242,109.107h-4.684V65.206h4.684V109.107z"/>
		<path fill="#F9F9FA" d="M440.168,109.107l-0.932-4.402h-0.225c-1.543,1.939-3.081,3.252-4.614,3.937
			c-1.532,0.688-3.447,1.03-5.74,1.03c-3.066,0-5.469-0.791-7.21-2.37c-1.739-1.579-2.609-3.826-2.609-6.742
			c0-6.244,4.995-9.517,14.982-9.819l5.249-0.171v-1.918c0-2.427-0.522-4.218-1.567-5.374c-1.043-1.158-2.715-1.736-5.007-1.736
			c-2.578,0-5.495,0.791-8.748,2.369l-1.439-3.582c1.525-0.829,3.193-1.477,5.01-1.947c1.815-0.47,3.634-0.706,5.46-0.706
			c3.686,0,6.418,0.817,8.196,2.454c1.776,1.637,2.665,4.26,2.665,7.873v21.104L440.168,109.107L440.168,109.107z M429.589,105.807
			c2.914,0,5.204-0.799,6.869-2.397c1.664-1.599,2.498-3.837,2.498-6.717V93.9l-4.687,0.196c-3.724,0.134-6.406,0.71-8.055,1.737
			c-1.645,1.024-2.469,2.619-2.469,4.782c0,1.693,0.512,2.981,1.539,3.863C426.311,105.365,427.742,105.807,429.589,105.807z"/>
		<path fill="#F9F9FA" d="M446.356,78.185h5.021l6.771,17.634c1.486,4.025,2.408,6.931,2.767,8.719h0.226
			c0.245-0.961,0.758-2.6,1.537-4.926c0.781-2.323,3.336-9.464,7.659-21.427h5.024l-13.29,35.21c-1.315,3.48-2.854,5.949-4.614,7.41
			c-1.758,1.456-3.917,2.184-6.473,2.184c-1.43,0-2.841-0.159-4.234-0.479v-3.752c1.035,0.225,2.192,0.338,3.472,0.338
			c3.217,0,5.51-1.805,6.885-5.417l1.72-4.4L446.356,78.185z"/>
	</g>
	<g>
		<path fill="#F9F9FA" d="M302.801,81.058c1.486,1.23,4.59,3.815,4.59,8.734c0,4.783-2.716,7.051-5.434,9.182
			c-0.84,0.841-1.812,1.748-1.812,3.174c0,1.42,0.971,2.196,1.684,2.78l2.33,1.807c2.846,2.394,5.431,4.594,5.431,9.06
			c0,6.078-5.888,12.221-17.009,12.221c-9.38,0-13.906-4.462-13.906-9.25c0-2.328,1.16-5.624,4.98-7.891
			c4.008-2.458,9.444-2.778,12.353-2.978c-0.907-1.162-1.939-2.393-1.939-4.394c0-1.098,0.324-1.745,0.646-2.524
			c-0.714,0.065-1.425,0.13-2.072,0.13c-6.853,0-10.733-5.11-10.733-10.152c0-2.977,1.36-6.276,4.138-8.667
			c3.688-3.04,8.086-3.559,11.582-3.559h13.319l-4.139,2.328L302.801,81.058L302.801,81.058z M298.207,109.776
			c-0.518-0.067-0.842-0.067-1.486-0.067c-0.581,0-4.08,0.132-6.792,1.041c-1.423,0.513-5.563,2.064-5.563,6.659
			c0,4.59,4.466,7.894,11.387,7.894c6.204,0,9.507-2.981,9.507-6.988C305.259,115.011,303.124,113.271,298.207,109.776z
			 M300.084,97.486c1.485-1.489,1.612-3.557,1.612-4.722c0-4.655-2.779-11.9-8.146-11.9c-1.684,0-3.493,0.84-4.527,2.136
			c-1.099,1.358-1.426,3.102-1.426,4.785c0,4.334,2.523,11.514,8.088,11.514C297.303,99.299,299.045,98.521,300.084,97.486z"/>
		<path fill="#F9F9FA" d="M262.081,108.741c-10.265,0-15.754-8.008-15.754-15.241c0-8.46,6.908-15.689,16.728-15.689
			c9.486,0,15.428,7.424,15.428,15.239C278.483,100.667,272.61,108.741,262.081,108.741z M270.152,103.512
			c1.553-2.068,1.94-4.649,1.94-7.171c0-5.685-2.713-16.531-10.72-16.531c-2.132,0-4.262,0.841-5.811,2.2
			c-2.519,2.257-2.973,5.1-2.973,7.88c0,6.388,3.165,16.911,10.98,16.911C266.087,106.801,268.671,105.576,270.152,103.512z"/>
		<path fill="#F9F9FA" d="M227.082,108.741c-10.268,0-15.758-8.008-15.758-15.241c0-8.46,6.911-15.689,16.727-15.689
			c9.491,0,15.432,7.424,15.432,15.239C243.483,100.667,237.609,108.741,227.082,108.741z M235.154,103.512
			c1.55-2.068,1.938-4.649,1.938-7.171c0-5.685-2.714-16.531-10.722-16.531c-2.129,0-4.262,0.841-5.81,2.2
			c-2.52,2.257-2.97,5.1-2.97,7.88c0,6.388,3.163,16.911,10.979,16.911C231.088,106.801,233.669,105.576,235.154,103.512z"/>
		<path fill="#F9F9FA" d="M206.393,107.729l-9.285,2.143c-3.768,0.586-7.143,1.102-10.71,1.102
			c-17.921,0-24.736-13.181-24.736-23.503c0-12.593,9.672-24.276,26.23-24.276c3.506,0,6.879,0.519,9.93,1.363
			c4.87,1.364,7.142,3.05,8.571,4.025l-5.391,5.128l-2.271,0.518l1.622-2.598c-2.206-2.141-6.235-6.1-13.893-6.1
			c-10.258,0-17.985,7.794-17.985,19.154c0,12.202,8.831,23.693,22.98,23.693c4.159,0,6.297-0.843,8.246-1.622V96.304l-9.802,0.519
			l5.193-2.795h13.764l-1.687,1.623c-0.458,0.391-0.521,0.523-0.65,1.037c-0.067,0.585-0.128,2.47-0.128,3.118v7.924H206.393z"/>
		<path fill="#F9F9FA" d="M323.319,105.86c-2.143-0.195-2.593-0.583-2.593-3.118v-0.715v-36.03c0.015-0.14,0.022-0.283,0.035-0.419
			c0.263-2.271,0.911-2.66,2.926-3.83H314.4l-4.871,2.337h4.964v0.03l-0.004-0.024v37.937v2.144c0,1.297-0.256,1.494-1.751,3.439
			h11.492l2.403-1.425C325.53,106.053,324.425,105.989,323.319,105.86z"/>
		<path fill="#F9F9FA" d="M349.736,106.456c-0.707,0.389-1.416,0.841-2.122,1.161c-2.131,0.967-4.322,1.226-6.261,1.226
			c-2.059,0-5.284-0.134-8.575-2.516c-4.573-3.227-6.573-8.771-6.573-13.604c0-9.992,8.123-14.892,14.764-14.892
			c2.322,0,4.711,0.579,6.645,1.807c3.221,2.123,4.059,4.896,4.507,6.379l-15.146,6.127l-4.966,0.388
			c1.609,8.188,7.153,12.955,13.281,12.955c3.287,0,5.674-1.158,7.864-2.253L349.736,106.456z M343.679,87.241
			c1.223-0.449,1.868-0.838,1.868-1.739c0-2.577-2.899-5.544-6.385-5.544c-2.581,0-7.414,2-7.414,8.96
			c0,1.097,0.13,2.257,0.196,3.421L343.679,87.241z"/>
		<g>
			<path fill="#F9F9FA" d="M355.961,78.272v4.254h-0.519v-4.254h-1.407v-0.441h3.331v0.441H355.961z"/>
			<path fill="#F9F9FA" d="M361.76,82.526v-4.293h-0.024l-1.31,4.293h-0.404l-1.321-4.293h-0.018v4.293h-0.47v-4.695h0.806
				l1.195,3.795h0.017l1.178-3.795h0.816v4.695H361.76z"/>
		</g>
	</g>
	<g>
		<path fill="#F8FAFB" d="M174.556,50.553h-3.227c0-0.444-0.306-1.7-0.917-3.771h-4.659c-0.632,2.036-0.947,3.293-0.947,3.771
			h-3.035c0-0.262,0.785-2.413,2.354-6.452c1.569-4.039,2.354-6.264,2.354-6.674h3.811c0,0.383,0.711,2.575,2.132,6.579
			C173.844,48.008,174.556,50.19,174.556,50.553z M169.898,44.857c-1.15-3.467-1.724-5.342-1.724-5.625h-0.162
			c0,0.261-0.595,2.136-1.784,5.625H169.898z"/>
		<path fill="#F8FAFB" d="M187.555,50.553h-2.489c0-0.276-0.925-1.73-2.772-4.365c-1.937-2.775-3.039-4.673-3.306-5.695h-0.162
			c0.167,1.472,0.252,2.803,0.252,3.992c0,1.66,0.047,3.683,0.141,6.068h-2.48c0.101-2.083,0.151-4.371,0.151-6.864
			c0-2.453-0.05-4.54-0.151-6.261h2.993c0,0.358,0.831,1.779,2.49,4.266c1.767,2.64,2.783,4.432,3.044,5.373h0.151
			c-0.161-1.499-0.242-2.842-0.242-4.032c0-1.821-0.047-3.69-0.141-5.606h2.521c-0.095,1.667-0.141,3.754-0.141,6.261
			C187.413,46.214,187.46,48.502,187.555,50.553z"/>
		<path fill="#F8FAFB" d="M202.167,43.537c0,1.909-0.611,3.575-1.835,5s-2.937,2.136-5.141,2.136c-0.995,0-2.367-0.04-4.114-0.12
			c0.087-2.03,0.131-4.319,0.131-6.865c0-2.446-0.044-4.533-0.131-6.261h1.764c0.289,0,0.719-0.01,1.291-0.029
			c0.57-0.02,0.944-0.03,1.118-0.03c2.426,0,4.185,0.605,5.278,1.815C201.62,40.391,202.167,41.843,202.167,43.537z M199.414,43.97
			c0-1.291-0.376-2.377-1.129-3.262c-0.752-0.883-1.902-1.326-3.447-1.326c-0.29,0-0.685,0.03-1.19,0.092
			c0.066,1.345,0.101,2.749,0.101,4.214c0,1.606,0.034,3.199,0.101,4.779c0.436,0.087,0.874,0.131,1.31,0.131
			c1.445,0,2.515-0.449,3.21-1.347C199.064,46.354,199.414,45.26,199.414,43.97z"/>
		<path fill="#F8FAFB" d="M215.64,50.553h-2.985c-0.779-2.379-1.377-3.847-1.794-4.406c-0.416-0.558-1.089-0.836-2.016-0.836
			c-0.39,0-0.763,0.004-1.118,0.01c0,1.729,0.029,3.472,0.091,5.232h-2.803c0.088-2.03,0.132-4.318,0.132-6.864
			c0-2.446-0.044-4.533-0.132-6.261h1.744c0.202,0,0.624-0.01,1.265-0.029c0.643-0.02,1.236-0.03,1.779-0.03
			c3.086,0,4.628,1.055,4.628,3.166c0,1.673-0.88,2.839-2.642,3.498v0.151c0.679,0.188,1.274,0.719,1.784,1.588
			S214.772,48.234,215.64,50.553z M211.859,41.278c0-1.337-0.86-2.006-2.581-2.006c-0.631,0-1.189,0.047-1.673,0.14
			c0.075,1.042,0.111,2.4,0.111,4.073c0.37,0.015,0.682,0.02,0.938,0.02C210.791,43.506,211.859,42.764,211.859,41.278z"/>
		<path fill="#F8FAFB" d="M230.09,43.748c0,2.063-0.633,3.774-1.896,5.131c-1.264,1.357-2.826,2.036-4.688,2.036
			c-1.774,0-3.26-0.622-4.456-1.869c-1.196-1.247-1.795-2.832-1.795-4.753c0-2.063,0.632-3.773,1.897-5.131
			c1.263-1.357,2.825-2.037,4.688-2.037c1.773,0,3.258,0.622,4.456,1.864C229.492,40.233,230.09,41.819,230.09,43.748z
			 M227.308,44.04c0-1.405-0.359-2.544-1.078-3.418c-0.72-0.874-1.606-1.31-2.661-1.31c-0.981,0-1.816,0.439-2.5,1.32
			c-0.686,0.88-1.028,1.992-1.028,3.337c0,1.397,0.361,2.535,1.083,3.412c0.723,0.877,1.608,1.316,2.657,1.316
			c0.981,0,1.815-0.442,2.5-1.326C226.965,46.488,227.308,45.377,227.308,44.04z"/>
		<path fill="#F8FAFB" d="M235.789,50.553h-2.853c0.088-2.083,0.132-4.372,0.132-6.864c0-2.454-0.044-4.541-0.132-6.261h2.853
			c-0.087,1.694-0.131,3.78-0.131,6.261C235.659,46.221,235.702,48.51,235.789,50.553z"/>
		<path fill="#F8FAFB" d="M250.403,43.537c0,1.909-0.612,3.575-1.835,5c-1.224,1.425-2.938,2.136-5.142,2.136
			c-0.995,0-2.366-0.04-4.113-0.12c0.088-2.03,0.132-4.319,0.132-6.865c0-2.446-0.044-4.533-0.132-6.261h1.764
			c0.29,0,0.719-0.01,1.291-0.029c0.571-0.02,0.944-0.03,1.118-0.03c2.426,0,4.185,0.605,5.279,1.815
			C249.855,40.391,250.403,41.843,250.403,43.537z M247.65,43.97c0-1.291-0.377-2.377-1.13-3.262
			c-0.752-0.883-1.901-1.326-3.447-1.326c-0.289,0-0.685,0.03-1.19,0.092c0.067,1.345,0.101,2.749,0.101,4.214
			c0,1.606,0.035,3.199,0.101,4.779c0.436,0.087,0.874,0.131,1.311,0.131c1.444,0,2.514-0.449,3.21-1.347
			C247.3,46.354,247.65,45.26,247.65,43.97z"/>
		<path fill="#F8FAFB" d="M269.787,50.553h-3.228c0-0.444-0.307-1.7-0.919-3.771h-4.656c-0.633,2.036-0.949,3.293-0.949,3.771
			h-3.033c0-0.262,0.785-2.413,2.354-6.452c1.569-4.039,2.354-6.264,2.354-6.674h3.813c0,0.383,0.711,2.575,2.131,6.579
			C269.074,48.008,269.787,50.19,269.787,50.553z M265.129,44.857c-1.15-3.467-1.726-5.342-1.726-5.625h-0.161
			c0,0.261-0.595,2.136-1.783,5.625H265.129z"/>
		<path fill="#F8FAFB" d="M281.546,40.865c0,1.606-0.597,2.793-1.789,3.559c-1.193,0.766-2.656,1.15-4.391,1.15
			c-0.316,0-0.54-0.007-0.676-0.02c0,1.265,0.036,2.93,0.111,5h-2.834c0.088-1.941,0.133-4.23,0.133-6.864
			c0-2.419-0.045-4.506-0.133-6.261h1.754c0.25,0,0.726-0.01,1.432-0.029c0.705-0.02,1.316-0.03,1.835-0.03
			c1.275,0,2.355,0.289,3.235,0.867S281.546,39.689,281.546,40.865z M278.945,41.419c0-1.438-0.955-2.159-2.863-2.159
			c-0.479,0-0.981,0.052-1.513,0.151c0.074,1.271,0.11,2.708,0.11,4.316c0.169,0.014,0.364,0.019,0.585,0.019
			C277.719,43.748,278.945,42.972,278.945,41.419z"/>
		<path fill="#F8FAFB" d="M293.637,40.865c0,1.606-0.598,2.793-1.789,3.559c-1.193,0.766-2.657,1.15-4.391,1.15
			c-0.317,0-0.541-0.007-0.677-0.02c0,1.265,0.037,2.93,0.111,5h-2.834c0.089-1.941,0.133-4.23,0.133-6.864
			c0-2.419-0.044-4.506-0.133-6.261h1.755c0.249,0,0.726-0.01,1.431-0.029c0.705-0.02,1.316-0.03,1.835-0.03
			c1.276,0,2.355,0.289,3.235,0.867C293.194,38.813,293.637,39.689,293.637,40.865z M291.036,41.419
			c0-1.438-0.955-2.159-2.863-2.159c-0.478,0-0.981,0.052-1.513,0.151c0.074,1.271,0.111,2.708,0.111,4.316
			c0.168,0.014,0.363,0.019,0.584,0.019C289.81,43.748,291.036,42.972,291.036,41.419z"/>
		<path fill="#F8FAFB" d="M313.404,43.748c0,2.063-0.631,3.774-1.895,5.131c-1.265,1.358-2.828,2.036-4.688,2.036
			c-1.774,0-3.261-0.622-4.455-1.869c-1.197-1.247-1.795-2.832-1.795-4.753c0-2.063,0.632-3.773,1.896-5.131
			c1.265-1.358,2.826-2.037,4.688-2.037c1.775,0,3.261,0.622,4.456,1.864C312.806,40.233,313.404,41.819,313.404,43.748z
			 M310.622,44.04c0-1.405-0.359-2.544-1.078-3.418s-1.607-1.31-2.661-1.31c-0.982,0-1.815,0.439-2.501,1.32
			c-0.685,0.88-1.028,1.992-1.028,3.337c0,1.397,0.361,2.535,1.085,3.412c0.722,0.877,1.606,1.316,2.655,1.316
			c0.981,0,1.814-0.442,2.5-1.326C310.279,46.488,310.622,45.377,310.622,44.04z"/>
		<path fill="#F8FAFB" d="M327.069,50.553h-2.49c0-0.276-0.924-1.73-2.772-4.365c-1.937-2.775-3.038-4.673-3.307-5.695h-0.161
			c0.169,1.472,0.253,2.803,0.253,3.992c0,1.66,0.047,3.683,0.141,6.068h-2.48c0.101-2.083,0.15-4.371,0.15-6.864
			c0-2.453-0.05-4.54-0.15-6.261h2.994c0,0.358,0.83,1.779,2.489,4.266c1.768,2.64,2.782,4.432,3.045,5.373h0.15
			c-0.161-1.499-0.241-2.842-0.241-4.032c0-1.821-0.047-3.69-0.142-5.606h2.521c-0.096,1.667-0.142,3.754-0.142,6.261
			C326.928,46.214,326.975,48.502,327.069,50.553z"/>
	</g>
</g>
</svg>
